<svg xmlns="http://www.w3.org/2000/svg" width="200" height="210" viewBox="91 79 200 210" xmlns:v="https://vecta.io/nano"><path vector-effect="non-scaling-stroke" d="M97.18 117.47h30.78l13.41 38.1h.18v-38.1h20.29v62.97h-30.6l-13.58-37.13h-.18v37.13H97.19v-62.97zm72.41 0h53.75v14.99h-27.55v9.35h25.32v13.41h-25.32v10.23h27.55v14.99h-53.75v-62.97zm57.28 0h57.04v14.99h-15.33v47.98h-26.19v-47.98h-15.52v-14.99zm-129.69 70.2h30.78l13.41 38.1h.18v-38.1h20.29v62.97h-30.6l-13.58-37.13h-.18v37.13H97.19v-62.97zm96.94-1.94c23.02 0 29.28 7.59 29.28 33.43s-6.26 33.43-29.28 33.43-29.28-7.59-29.28-33.43 6.26-33.43 29.28-33.43zm-5.11 48.51c0 3.18 1.59 5.29 5.12 5.29s5.12-2.12 5.12-5.29v-30.16c0-3.18-1.59-5.29-5.12-5.29s-5.12 2.12-5.12 5.29v30.16zm37.63-46.47l.09-.09h33.6c16.41 0 23.2 6.7 23.2 21.08v20.81c0 14.38-6.79 21.08-23.2 21.08h-33.69v-62.88zm23.46 49.47h3.79c4.32 0 5.82-1.68 5.82-6.53V207.6c0-4.85-1.5-6.53-5.82-6.53h-3.79v36.17zM97.18 105.3V85.5h186.73v19.8zm0 177.3v-19.8h186.73v19.8z" fill="#636774"/><path vector-effect="non-scaling-stroke" d="M226.86 276.95v-8.5h45.81v8.5z" fill="#aec90b"/></svg>